<mxfile host="Electron" modified="2023-05-24T08:52:59.949Z" agent="Mozilla/5.0 (Windows NT 10.0; Win64; x64) AppleWebKit/537.36 (KHTML, like Gecko) draw.io/21.2.8 Chrome/112.0.5615.165 Electron/24.2.0 Safari/537.36" etag="oRwe0hfMpp5Qwb2XRUvr" version="21.2.8" type="device">
  <diagram name="ページ1" id="tVr-RxveY0WpipnJPD6z">
    <mxGraphModel dx="1147" dy="675" grid="1" gridSize="10" guides="1" tooltips="1" connect="1" arrows="1" fold="1" page="1" pageScale="1" pageWidth="1654" pageHeight="2336" background="none" math="0" shadow="0">
      <root>
        <mxCell id="0" />
        <mxCell id="1" parent="0" />
        <mxCell id="SVOkSf6OeGCzOYOTrair-7" value="①ログイン画面" style="swimlane;" vertex="1" parent="1">
          <mxGeometry x="360" y="30" width="200" height="70" as="geometry" />
        </mxCell>
        <mxCell id="SVOkSf6OeGCzOYOTrair-8" value="ユーザーネームとパスワード&lt;br&gt;を入力しログインする" style="text;html=1;align=center;verticalAlign=middle;resizable=0;points=[];autosize=1;strokeColor=none;fillColor=none;" vertex="1" parent="SVOkSf6OeGCzOYOTrair-7">
          <mxGeometry x="10" y="30" width="180" height="40" as="geometry" />
        </mxCell>
        <mxCell id="SVOkSf6OeGCzOYOTrair-9" value="③アウトソーサーの登録画面" style="swimlane;" vertex="1" parent="1">
          <mxGeometry x="40" y="133" width="200" height="80" as="geometry" />
        </mxCell>
        <mxCell id="SVOkSf6OeGCzOYOTrair-10" value="社員の登録を行う。&lt;br&gt;必要事項は名前だけで&lt;br&gt;他は任意" style="text;html=1;align=center;verticalAlign=middle;resizable=0;points=[];autosize=1;strokeColor=none;fillColor=none;" vertex="1" parent="SVOkSf6OeGCzOYOTrair-9">
          <mxGeometry x="30" y="20" width="140" height="60" as="geometry" />
        </mxCell>
        <mxCell id="SVOkSf6OeGCzOYOTrair-11" value="②アウトソーサーの検索画面" style="swimlane;" vertex="1" parent="1">
          <mxGeometry x="260" y="138" width="200" height="60" as="geometry" />
        </mxCell>
        <mxCell id="SVOkSf6OeGCzOYOTrair-15" value="アウトソーサーの検索が行える" style="text;html=1;align=center;verticalAlign=middle;resizable=0;points=[];autosize=1;strokeColor=none;fillColor=none;" vertex="1" parent="SVOkSf6OeGCzOYOTrair-11">
          <mxGeometry x="10" y="25" width="190" height="30" as="geometry" />
        </mxCell>
        <mxCell id="SVOkSf6OeGCzOYOTrair-13" value="⑤会社の登録画面" style="swimlane;" vertex="1" parent="1">
          <mxGeometry x="700" y="138" width="200" height="80" as="geometry" />
        </mxCell>
        <mxCell id="SVOkSf6OeGCzOYOTrair-14" value="会社の登録を行う&lt;br&gt;必要事項は会社名だけで&lt;br&gt;他は任意" style="text;html=1;align=center;verticalAlign=middle;resizable=0;points=[];autosize=1;strokeColor=none;fillColor=none;" vertex="1" parent="SVOkSf6OeGCzOYOTrair-13">
          <mxGeometry x="20" y="20" width="160" height="60" as="geometry" />
        </mxCell>
        <mxCell id="SVOkSf6OeGCzOYOTrair-16" value="④会社の検索画面" style="swimlane;" vertex="1" parent="1">
          <mxGeometry x="480" y="138" width="200" height="50" as="geometry" />
        </mxCell>
        <mxCell id="SVOkSf6OeGCzOYOTrair-17" value="登録会社の検索が行える" style="text;html=1;align=center;verticalAlign=middle;resizable=0;points=[];autosize=1;strokeColor=none;fillColor=none;" vertex="1" parent="SVOkSf6OeGCzOYOTrair-16">
          <mxGeometry x="20" y="20" width="160" height="30" as="geometry" />
        </mxCell>
        <mxCell id="SVOkSf6OeGCzOYOTrair-18" value="" style="edgeStyle=elbowEdgeStyle;elbow=horizontal;endArrow=classic;html=1;curved=0;rounded=0;endSize=8;startSize=8;entryX=0.25;entryY=0;entryDx=0;entryDy=0;" edge="1" parent="1" target="SVOkSf6OeGCzOYOTrair-11">
          <mxGeometry width="50" height="50" relative="1" as="geometry">
            <mxPoint x="360" y="70" as="sourcePoint" />
            <mxPoint x="150" y="10" as="targetPoint" />
            <Array as="points">
              <mxPoint x="310" y="100" />
            </Array>
          </mxGeometry>
        </mxCell>
        <mxCell id="SVOkSf6OeGCzOYOTrair-19" value="" style="line;strokeWidth=2;html=1;" vertex="1" parent="1">
          <mxGeometry x="40" y="110" width="940" height="10" as="geometry" />
        </mxCell>
        <mxCell id="SVOkSf6OeGCzOYOTrair-20" value="" style="html=1;shadow=0;dashed=0;align=center;verticalAlign=middle;shape=mxgraph.arrows2.arrow;dy=0.6;dx=40;direction=south;notch=0;" vertex="1" parent="1">
          <mxGeometry x="910" y="123" width="40" height="157" as="geometry" />
        </mxCell>
        <mxCell id="SVOkSf6OeGCzOYOTrair-21" value="⑥header" style="swimlane;" vertex="1" parent="1">
          <mxGeometry x="820" y="290" width="190" height="80" as="geometry" />
        </mxCell>
        <mxCell id="SVOkSf6OeGCzOYOTrair-22" value="headerを表示&lt;br&gt;②③④⑤⑪⑫&lt;br&gt;にいつでも遷移できる" style="text;html=1;align=center;verticalAlign=middle;resizable=0;points=[];autosize=1;strokeColor=none;fillColor=none;" vertex="1" parent="SVOkSf6OeGCzOYOTrair-21">
          <mxGeometry x="37" y="20" width="140" height="60" as="geometry" />
        </mxCell>
        <mxCell id="SVOkSf6OeGCzOYOTrair-23" value="&lt;div style=&quot;&quot;&gt;&lt;span style=&quot;background-color: initial;&quot;&gt;以下で⑥headerを表示&lt;/span&gt;&lt;/div&gt;" style="rounded=0;whiteSpace=wrap;html=1;align=right;fillColor=#dae8fc;strokeColor=#6c8ebf;horizontal=0;" vertex="1" parent="1">
          <mxGeometry x="950" y="123" width="30" height="137" as="geometry" />
        </mxCell>
        <mxCell id="SVOkSf6OeGCzOYOTrair-24" value="⑦アウトソーサーの詳細画面" style="swimlane;" vertex="1" parent="1">
          <mxGeometry x="260" y="250" width="200" height="80" as="geometry" />
        </mxCell>
        <mxCell id="SVOkSf6OeGCzOYOTrair-25" value="社員の詳細を表示&lt;br&gt;外勤先の選択もここで行う" style="text;html=1;align=center;verticalAlign=middle;resizable=0;points=[];autosize=1;strokeColor=none;fillColor=none;" vertex="1" parent="SVOkSf6OeGCzOYOTrair-24">
          <mxGeometry x="15" y="30" width="170" height="40" as="geometry" />
        </mxCell>
        <mxCell id="SVOkSf6OeGCzOYOTrair-26" value="" style="edgeStyle=elbowEdgeStyle;elbow=horizontal;endArrow=classic;html=1;curved=0;rounded=0;endSize=8;startSize=8;entryX=0.5;entryY=0;entryDx=0;entryDy=0;" edge="1" parent="1" target="SVOkSf6OeGCzOYOTrair-24">
          <mxGeometry width="50" height="50" relative="1" as="geometry">
            <mxPoint x="360" y="190" as="sourcePoint" />
            <mxPoint x="40" y="383" as="targetPoint" />
            <Array as="points" />
          </mxGeometry>
        </mxCell>
        <mxCell id="SVOkSf6OeGCzOYOTrair-27" value="" style="edgeStyle=elbowEdgeStyle;elbow=horizontal;endArrow=classic;html=1;curved=0;rounded=0;endSize=8;startSize=8;exitX=0.5;exitY=1;exitDx=0;exitDy=0;" edge="1" parent="1" source="SVOkSf6OeGCzOYOTrair-24" target="SVOkSf6OeGCzOYOTrair-28">
          <mxGeometry width="50" height="50" relative="1" as="geometry">
            <mxPoint x="370" y="200" as="sourcePoint" />
            <mxPoint x="355" y="410" as="targetPoint" />
            <Array as="points" />
          </mxGeometry>
        </mxCell>
        <mxCell id="SVOkSf6OeGCzOYOTrair-28" value="⑧アウトソーサーの詳細変更画面" style="swimlane;" vertex="1" parent="1">
          <mxGeometry x="260" y="390" width="210" height="80" as="geometry" />
        </mxCell>
        <mxCell id="SVOkSf6OeGCzOYOTrair-29" value="アウトソーサーの詳細が変更できる&lt;br&gt;レイアウトは③と似てる" style="text;html=1;align=center;verticalAlign=middle;resizable=0;points=[];autosize=1;strokeColor=none;fillColor=none;" vertex="1" parent="SVOkSf6OeGCzOYOTrair-28">
          <mxGeometry x="-10" y="30" width="220" height="40" as="geometry" />
        </mxCell>
        <mxCell id="SVOkSf6OeGCzOYOTrair-30" value="⑨会社の詳細画面" style="swimlane;" vertex="1" parent="1">
          <mxGeometry x="480" y="240" width="200" height="80" as="geometry" />
        </mxCell>
        <mxCell id="SVOkSf6OeGCzOYOTrair-31" value="会社の詳細を表示" style="text;html=1;align=center;verticalAlign=middle;resizable=0;points=[];autosize=1;strokeColor=none;fillColor=none;" vertex="1" parent="SVOkSf6OeGCzOYOTrair-30">
          <mxGeometry x="40" y="35" width="120" height="30" as="geometry" />
        </mxCell>
        <mxCell id="SVOkSf6OeGCzOYOTrair-32" value="⑩会社の詳細変更画面" style="swimlane;" vertex="1" parent="1">
          <mxGeometry x="490" y="390" width="200" height="80" as="geometry" />
        </mxCell>
        <mxCell id="SVOkSf6OeGCzOYOTrair-33" value="会社の詳細を表示" style="text;html=1;align=center;verticalAlign=middle;resizable=0;points=[];autosize=1;strokeColor=none;fillColor=none;" vertex="1" parent="SVOkSf6OeGCzOYOTrair-32">
          <mxGeometry x="40" y="35" width="120" height="30" as="geometry" />
        </mxCell>
        <mxCell id="SVOkSf6OeGCzOYOTrair-34" value="" style="edgeStyle=elbowEdgeStyle;elbow=horizontal;endArrow=classic;html=1;curved=0;rounded=0;endSize=8;startSize=8;exitX=0.478;exitY=1.124;exitDx=0;exitDy=0;exitPerimeter=0;" edge="1" parent="1" source="SVOkSf6OeGCzOYOTrair-17" target="SVOkSf6OeGCzOYOTrair-30">
          <mxGeometry width="50" height="50" relative="1" as="geometry">
            <mxPoint x="370" y="200" as="sourcePoint" />
            <mxPoint x="370" y="260" as="targetPoint" />
            <Array as="points" />
          </mxGeometry>
        </mxCell>
        <mxCell id="SVOkSf6OeGCzOYOTrair-35" value="" style="edgeStyle=elbowEdgeStyle;elbow=horizontal;endArrow=classic;html=1;curved=0;rounded=0;endSize=8;startSize=8;entryX=0.462;entryY=0.007;entryDx=0;entryDy=0;exitX=0.5;exitY=1;exitDx=0;exitDy=0;entryPerimeter=0;" edge="1" parent="1" source="SVOkSf6OeGCzOYOTrair-30" target="SVOkSf6OeGCzOYOTrair-32">
          <mxGeometry width="50" height="50" relative="1" as="geometry">
            <mxPoint x="620" y="330" as="sourcePoint" />
            <mxPoint x="370" y="400" as="targetPoint" />
            <Array as="points" />
          </mxGeometry>
        </mxCell>
        <mxCell id="SVOkSf6OeGCzOYOTrair-36" value="" style="endArrow=block;dashed=1;endFill=0;endSize=12;html=1;rounded=0;exitX=0.5;exitY=0;exitDx=0;exitDy=0;entryX=0.574;entryY=1.052;entryDx=0;entryDy=0;entryPerimeter=0;" edge="1" parent="1" source="SVOkSf6OeGCzOYOTrair-21" target="SVOkSf6OeGCzOYOTrair-14">
          <mxGeometry width="160" relative="1" as="geometry">
            <mxPoint x="600" y="620" as="sourcePoint" />
            <mxPoint x="760" y="620" as="targetPoint" />
            <Array as="points">
              <mxPoint x="812" y="260" />
            </Array>
          </mxGeometry>
        </mxCell>
        <mxCell id="SVOkSf6OeGCzOYOTrair-37" value="" style="endArrow=block;dashed=1;endFill=0;endSize=12;html=1;rounded=0;entryX=0.544;entryY=1.006;entryDx=0;entryDy=0;entryPerimeter=0;" edge="1" parent="1" target="SVOkSf6OeGCzOYOTrair-17">
          <mxGeometry width="160" relative="1" as="geometry">
            <mxPoint x="810" y="260" as="sourcePoint" />
            <mxPoint x="822" y="231" as="targetPoint" />
            <Array as="points">
              <mxPoint x="587" y="220" />
            </Array>
          </mxGeometry>
        </mxCell>
        <mxCell id="SVOkSf6OeGCzOYOTrair-38" value="" style="endArrow=block;dashed=1;endFill=0;endSize=12;html=1;rounded=0;entryX=0.553;entryY=1.067;entryDx=0;entryDy=0;entryPerimeter=0;" edge="1" parent="1" target="SVOkSf6OeGCzOYOTrair-15">
          <mxGeometry width="160" relative="1" as="geometry">
            <mxPoint x="590" y="220" as="sourcePoint" />
            <mxPoint x="450" y="510" as="targetPoint" />
            <Array as="points">
              <mxPoint x="380" y="220" />
            </Array>
          </mxGeometry>
        </mxCell>
        <mxCell id="SVOkSf6OeGCzOYOTrair-39" value="" style="endArrow=block;dashed=1;endFill=0;endSize=12;html=1;rounded=0;entryX=0.484;entryY=1.057;entryDx=0;entryDy=0;entryPerimeter=0;" edge="1" parent="1" target="SVOkSf6OeGCzOYOTrair-10">
          <mxGeometry width="160" relative="1" as="geometry">
            <mxPoint x="380" y="220" as="sourcePoint" />
            <mxPoint x="-30" y="250" as="targetPoint" />
            <Array as="points">
              <mxPoint x="150" y="230" />
            </Array>
          </mxGeometry>
        </mxCell>
        <mxCell id="SVOkSf6OeGCzOYOTrair-40" value="⑪パスワードの変更" style="swimlane;" vertex="1" parent="1">
          <mxGeometry x="790" y="390" width="190" height="80" as="geometry" />
        </mxCell>
        <mxCell id="SVOkSf6OeGCzOYOTrair-41" value="ログイン中のアカウントの&lt;br&gt;パスワードを変更できる" style="text;html=1;align=center;verticalAlign=middle;resizable=0;points=[];autosize=1;strokeColor=none;fillColor=none;" vertex="1" parent="SVOkSf6OeGCzOYOTrair-40">
          <mxGeometry x="10" y="30" width="170" height="40" as="geometry" />
        </mxCell>
        <mxCell id="SVOkSf6OeGCzOYOTrair-42" value="" style="endArrow=block;dashed=1;endFill=0;endSize=12;html=1;rounded=0;exitX=0.434;exitY=1.028;exitDx=0;exitDy=0;entryX=0.5;entryY=0;entryDx=0;entryDy=0;exitPerimeter=0;" edge="1" parent="1" source="SVOkSf6OeGCzOYOTrair-22" target="SVOkSf6OeGCzOYOTrair-40">
          <mxGeometry width="160" relative="1" as="geometry">
            <mxPoint x="925" y="300" as="sourcePoint" />
            <mxPoint x="822" y="231" as="targetPoint" />
            <Array as="points">
              <mxPoint x="900" y="372" />
            </Array>
          </mxGeometry>
        </mxCell>
        <mxCell id="SVOkSf6OeGCzOYOTrair-43" value="" style="endArrow=block;dashed=1;endFill=0;endSize=12;html=1;rounded=0;exitX=0.5;exitY=1;exitDx=0;exitDy=0;entryX=0.5;entryY=0;entryDx=0;entryDy=0;" edge="1" parent="1" source="SVOkSf6OeGCzOYOTrair-47" target="SVOkSf6OeGCzOYOTrair-45">
          <mxGeometry width="160" relative="1" as="geometry">
            <mxPoint x="928" y="382" as="sourcePoint" />
            <mxPoint x="730" y="480" as="targetPoint" />
            <Array as="points">
              <mxPoint x="745" y="430" />
            </Array>
          </mxGeometry>
        </mxCell>
        <mxCell id="SVOkSf6OeGCzOYOTrair-45" value="⑫管理者画面" style="swimlane;" vertex="1" parent="1">
          <mxGeometry x="650" y="490" width="190" height="80" as="geometry" />
        </mxCell>
        <mxCell id="SVOkSf6OeGCzOYOTrair-46" value="アカウントの追加が出来る&lt;br&gt;アカウントの削除&lt;br&gt;(無効化)が出来る" style="text;html=1;align=center;verticalAlign=middle;resizable=0;points=[];autosize=1;strokeColor=none;fillColor=none;" vertex="1" parent="SVOkSf6OeGCzOYOTrair-45">
          <mxGeometry x="10" y="20" width="170" height="60" as="geometry" />
        </mxCell>
        <mxCell id="SVOkSf6OeGCzOYOTrair-48" value="" style="endArrow=block;dashed=1;endFill=0;endSize=12;html=1;rounded=0;exitX=0;exitY=0.5;exitDx=0;exitDy=0;entryX=0.5;entryY=0;entryDx=0;entryDy=0;" edge="1" parent="1" source="SVOkSf6OeGCzOYOTrair-21" target="SVOkSf6OeGCzOYOTrair-47">
          <mxGeometry width="160" relative="1" as="geometry">
            <mxPoint x="820" y="330" as="sourcePoint" />
            <mxPoint x="725" y="505" as="targetPoint" />
            <Array as="points">
              <mxPoint x="745" y="310" />
            </Array>
          </mxGeometry>
        </mxCell>
        <mxCell id="SVOkSf6OeGCzOYOTrair-47" value="管理者のみ" style="ellipse;whiteSpace=wrap;html=1;fillColor=#d5e8d4;strokeColor=#82b366;" vertex="1" parent="1">
          <mxGeometry x="700" y="350" width="90" height="40" as="geometry" />
        </mxCell>
      </root>
    </mxGraphModel>
  </diagram>
</mxfile>
